Coordinates
version=1
nRows=4
nColumns=63
inDegrees=yes

Units are S.I. units (second, meters, Newtons, ...)
If the header above contains a line with 'inDegrees', this indicates whether rotational values are in degrees (yes) or radians (no).

endheader
time	pelvis_tilt	pelvis_list	pelvis_rotation	pelvis_tx	pelvis_ty	pelvis_tz	hip_flexion_r	hip_adduction_r	hip_rotation_r	knee_angle_r	knee_angle_r_beta	ankle_angle_r	subtalar_angle_r	mtp_angle_r	hip_flexion_l	hip_adduction_l	hip_rotation_l	knee_angle_l	knee_angle_l_beta	ankle_angle_l	subtalar_angle_l	mtp_angle_l	L5_S1_Flex_Ext	L5_S1_Lat_Bending	L5_S1_axial_rotation	L4_L5_Flex_Ext	L4_L5_Lat_Bending	L4_L5_axial_rotation	L3_L4_Flex_Ext	L3_L4_Lat_Bending	L3_L4_axial_rotation	L2_L3_Flex_Ext	L2_L3_Lat_Bending	L2_L3_axial_rotation	L1_L2_Flex_Ext	L1_L2_Lat_Bending	L1_L2_axial_rotation	L1_T12_Flex_Ext	L1_T12_Lat_Bending	L1_T12_axial_rotation	Abs_r3	Abs_r2	Abs_r1	Abs_t1	Abs_t2	neck_flexion	neck_bending	neck_rotation	arm_flex_r	arm_add_r	arm_rot_r	elbow_flex_r	pro_sup_r	wrist_flex_r	wrist_dev_r	arm_flex_l	arm_add_l	arm_rot_l	elbow_flex_l	pro_sup_l	wrist_flex_l	wrist_dev_l
      5.71666667	     -1.32221947	     -4.89653284	     94.59646376	      0.22663417	      0.71801018	      0.67123838	      4.26020728	     -2.19494619	      0.74187370	     10.71122191	      0.18694609	     30.37889705	      3.08397382	      0.00000000	      3.82120192	      1.21788803	    -14.28895066	      8.49165109	      0.14820727	     32.53537015	     14.28096292	      0.00000000	     -0.26134748	      0.18556441	     -0.12696447	     -0.48534841	      0.24680066	     -0.13489975	     -0.42936778	      0.45118130	     -0.13489975	     -0.29869404	      0.45118130	     -0.11109391	     -0.24268727	      0.37840294	     -0.10315863	     -0.14933395	      0.28743927	     -0.09522335	     -1.86677893	      2.09914171	     -0.70613829	      0.00000000	      0.00000000	     26.38909366	     -5.60541269	     -5.07888838	     15.44824321	    -15.62646898	    119.48410792	     11.43390973	      5.83873481	     -7.77606214	     -9.59974758	     11.79239520	    -12.64406285	    118.14887388	     11.98803208	      9.03592506	     -5.49520781	    -18.30978568
      5.73333333	     -1.26912209	     -4.69040641	     94.37400128	      0.22748623	      0.71839978	      0.67048612	      4.01411550	     -2.08081151	      0.71024054	     10.73992888	      0.18744712	     30.23041480	      3.19460246	      0.00000000	      3.50228145	      1.10784864	    -14.48087375	      8.35668405	      0.14585165	     32.49140086	     14.32587693	      0.00000000	     -0.25971618	      0.21513730	     -0.11431571	     -0.48231891	      0.28613261	     -0.12146044	     -0.42668771	      0.52308483	     -0.12146044	     -0.29682962	      0.52308483	     -0.10002625	     -0.24117244	      0.43870798	     -0.09288151	     -0.14840182	      0.33324767	     -0.08573678	     -1.85512667	      2.43367614	     -0.63578968	      0.00000000	      0.00000000	     25.87338622	     -6.52683869	     -5.72965858	     14.71106126	    -16.06799795	    113.28991326	     11.58625187	      6.03995299	     -7.29259508	     -9.84547351	     11.74563349	    -11.53112277	    125.54514976	      9.72787737	      4.55683404	     -4.34405025	    -18.82600837
      5.75000000	     -1.21965314	     -4.46976935	     94.12869759	      0.22852608	      0.71878480	      0.66942280	      3.71509207	     -1.95059703	      0.68864891	     10.66003435	      0.18605270	     30.10291993	      3.39199934	      0.00000000	      3.10685499	      1.00772210	    -14.60797320	      8.11572718	      0.14164616	     32.43633552	     14.34931360	      0.00000000	     -0.25988605	      0.24694816	     -0.10716086	     -0.48263439	      0.32844105	     -0.11385842	     -0.42696679	      0.60042975	     -0.11385842	     -0.29702377	      0.60042975	     -0.09376576	     -0.24133019	      0.50357668	     -0.08706820	     -0.14849889	      0.38252269	     -0.08037065	     -1.85634007	      2.79352694	     -0.59599658	      0.00000000	      0.00000000	     24.95860837	     -7.35658037	     -5.97303931	     14.18338722	    -16.21534287	    110.90951124	     11.28841238	      4.25222789	     -6.73295106	    -10.14581861	     11.53144011	    -11.17864758	    125.67941952	      9.29091235	      4.46065264	     -4.34360617	    -19.04239897
      5.76666667	     -1.11637264	     -4.11630533	     93.93567724	      0.22968801	      0.71928471	      0.66838007	      3.40648439	     -1.73308661	      0.67673802	     10.84303619	      0.18924668	     30.13188404	      3.47346437	      0.00000000	      2.68699514	      0.79943216	    -14.66864404	      8.15503090	      0.14233214	     32.52215753	     14.29687864	      0.00000000	     -0.29168245	      0.28490824	     -0.10808587	     -0.54168347	      0.37892796	     -0.11484123	     -0.47920509	      0.69272590	     -0.11484123	     -0.33336387	      0.69272590	     -0.09457513	     -0.27085632	      0.58098489	     -0.08781977	     -0.16666735	      0.44132287	     -0.08106440	     -2.08345854	      3.22293902	     -0.60114117	      0.00000000	      0.00000000	     23.76999064	     -7.53986179	     -5.83484965	     13.80236561	    -16.21589166	    109.81716897	     10.68558677	      3.55678151	     -6.72066026	    -10.12472202	     11.40589890	    -10.85913376	    125.61853459	      8.94147195	      4.29135818	     -4.36192366	    -19.11750490
